<?xml version="1.0" encoding="UTF-8" standalone="no" ?>
<!DOCTYPE svg PUBLIC "-//W3C//DTD SVG 1.1//EN" "http://www.w3.org/Graphics/SVG/1.1/DTD/svg11.dtd">
<svg xmlns="http://www.w3.org/2000/svg" xmlns:xlink="http://www.w3.org/1999/xlink" version="1.1" viewBox="0 0 800 680" xml:space="preserve">

<defs>
</defs>
<g transform="matrix(0.2 0 0 0.2 271.55 236.45)"  >
<path style="stroke: none; stroke-width: 1; stroke-dasharray: none; stroke-linecap: butt; stroke-dashoffset: 0; stroke-linejoin: miter; stroke-miterlimit: 4; fill: rgb(125,211,202); fill-rule: nonzero; opacity: 1;"  transform=" translate(-112.37, -632.24)" d="M 93.94 640.74 C 96.17 632.0600000000001 97.88 622.74 101.03 613.83 C 104.55 603.95 112.03 597.32 122.03 593.83 C 126.03 592.4300000000001 130.03 593.1700000000001 130.76 597.37 C 131.14999999999998 599.64 128.54 604.04 126.30999999999999 604.86 C 115.23999999999998 608.95 110.83999999999999 617.73 108.63 628.11 C 106.16344279616841 639.0337870928732 106.7095403240405 650.4223399684339 110.20999999999998 661.0600000000001 C 111.55999999999999 665.0600000000001 112.07 669.0600000000001 107.36999999999999 670.83 C 102.42999999999999 672.64 100.21 668.83 99.21999999999998 664.9200000000001 C 97.26 657.29 95.82 649.53 93.94 640.74 Z" stroke-linecap="round" />
</g>
<g transform="matrix(0.2 0 0 0.2 278.24 229.72)"  >
<path style="stroke: none; stroke-width: 1; stroke-dasharray: none; stroke-linecap: butt; stroke-dashoffset: 0; stroke-linejoin: miter; stroke-miterlimit: 4; fill: rgb(125,211,202); fill-rule: nonzero; opacity: 1;"  transform=" translate(-145.84, -598.57)" d="M 152.43 598.28 C 148.95000000000002 601.0699999999999 146.85 604.05 144.81 604.01 C 142.77 603.97 139.03 600.59 139.26 599.18 C 139.63 596.8299999999999 142.26 593.7199999999999 144.51 593.18 C 146.19 592.71 148.77 595.76 152.43 598.28 Z" stroke-linecap="round" />
</g>
<g transform="matrix(0.2 0 0 0.2 300.71 186.05)"  >
<path style="stroke: none; stroke-width: 1; stroke-dasharray: none; stroke-linecap: butt; stroke-dashoffset: 0; stroke-linejoin: miter; stroke-miterlimit: 4; fill: rgb(255,145,77); fill-rule: nonzero; opacity: 1;"  transform=" translate(-258.19, -380.25)" d="M 484.64 225.76 C 474.13 203.88 459.40999999999997 185.14999999999998 438.03999999999996 172.54 C 414.77 158.79999999999998 391.13 155.54 367.21 170.79999999999998 C 359.75 175.57 351.88 180.2 345.69 186.38 C 323.17 208.89 301.29 232.03 279.15 254.92000000000002 C 265.72999999999996 268.81 252.51999999999998 282.92 238.7 296.42 C 234.2 300.83000000000004 227.45999999999998 304.8 221.35999999999999 300.98 C 214.95 296.98 217.24999999999997 289.38 218.79999999999998 283.36 C 226.32 254.07000000000002 242.35 229.5 263.88 208.97000000000003 C 283.29 190.46000000000004 304.1 173.37000000000003 324.77 156.24000000000004 C 348.77 136.37000000000003 371.59999999999997 115.62000000000003 386.9 87.94000000000004 C 397.52 68.72000000000004 407.44 49.19000000000004 407.9 26.560000000000038 C 408.25 8.460000000000036 399.9 0.11000000000003851 381.77 3.907985046680551e-14 C 365.1 -0.1 349.3 4.18 333.92 10.16 C 264 37.36 210.94 84.43 172.47 148.3 C 138.96 203.93 118.47 264.51 105.52 327.84000000000003 C 104.66 332.06000000000006 102.64 334.15000000000003 99.19999999999999 336.59000000000003 C 90.57 342.71000000000004 81.63 348.90000000000003 74.63 356.69000000000005 C 60.449999999999996 372.47 51.779999999999994 391.57000000000005 44.839999999999996 411.55000000000007 C 41.839999999999996 420.07000000000005 38.56999999999999 428.95000000000005 33.269999999999996 436.06000000000006 C 15 460.6 13.31 492.41 31 517.48 C 36.51 525.27 44 531.69 50.65 538.87 C 46.28 543.66 41.239999999999995 548.62 36.839999999999996 554.09 C 16.46 579.48 6 609 1.29 640.87 C -2.17 664.53 1.2 687.34 12.86 708.32 C 35.86 749.7800000000001 84.47 769.09 133.61 756.8900000000001 C 146.87 753.6000000000001 159.02 740.6400000000001 160.61 727.3400000000001 C 162.38000000000002 712.9400000000002 154.36 703.7100000000002 143.07000000000002 696.7100000000002 C 138.86249211069375 693.9875316410228 134.3478128183545 691.7721499808414 129.62000000000006 690.1100000000001 C 120.12000000000003 687.0000000000001 110.33000000000004 684.7700000000001 100.82000000000004 681.7000000000002 C 98.16000000000004 680.8400000000001 94.82000000000004 678.7900000000002 93.88000000000004 676.4600000000002 C 87.88000000000004 661.0300000000002 84.63000000000004 645.0900000000001 86.21000000000004 628.3500000000001 C 88.21000000000004 607.1000000000001 102.46000000000004 588.9300000000002 122.21000000000004 582.9500000000002 C 141.96000000000004 576.9700000000001 163.11000000000004 583.9500000000002 176.21000000000004 601.4700000000001 C 181.85000000000002 609.0400000000002 185.98000000000005 617.7400000000001 191.34000000000003 626.8400000000001 C 193.78000000000003 624.0200000000001 195.80000000000004 620.9200000000002 198.53000000000003 618.6600000000002 C 205.82000000000002 612.6000000000003 212.78000000000003 605.7100000000002 221.02000000000004 601.2700000000002 C 242.35000000000002 589.7700000000002 268.92 597.1300000000002 282.68000000000006 617.1200000000002 C 294.68000000000006 634.5800000000003 293.76000000000005 652.8900000000002 287.13000000000005 671.9300000000003 C 285.34000000000003 677.0700000000003 282.6700000000001 679.1000000000003 277.47 680.5600000000003 C 261.77000000000004 684.9700000000003 246.09000000000003 689.6900000000003 230.89000000000004 695.5600000000003 C 221.4892656189761 699.066022018841 214.3949213139014 706.9444780628976 211.89000000000004 716.6600000000003 C 207.52000000000004 732.8600000000004 219.58000000000004 752.0300000000003 236.89000000000004 756.5600000000003 C 255.52000000000004 761.4300000000003 274.37000000000006 761.0100000000003 293.18000000000006 758.1600000000003 C 333.33000000000004 752.0800000000003 368.62000000000006 710.9600000000003 370.87000000000006 668.1600000000003 C 372.99000000000007 627.9300000000003 361.52000000000004 591.6900000000003 338.55000000000007 558.9800000000002 C 333.24000000000007 551.4300000000003 326.55000000000007 544.8900000000002 320.2200000000001 537.6500000000002 C 321.8200000000001 536.4900000000002 323.4600000000001 535.3100000000002 325.0900000000001 534.1100000000002 C 355.1900000000001 511.97000000000025 361.9700000000001 469.4400000000002 340.87000000000006 439.11000000000024 C 335.25000000000006 431.03000000000026 331.46000000000004 421.65000000000026 327.18000000000006 412.6900000000002 C 320.63000000000005 398.9700000000002 315.38000000000005 384.5100000000002 307.77000000000004 371.42000000000024 C 296.84000000000003 352.6400000000002 296.25000000000006 335.52000000000027 311.86 320.42000000000024 C 324.98 307.7500000000002 340.59000000000003 297.55000000000024 355.67 287.09000000000026 C 362.38 282.43000000000023 368.77000000000004 284.23000000000025 374.16 291.36000000000024 C 379.55 298.49000000000024 384 306.13 388.4 313.8 C 397.17999999999995 328.95 404.73999999999995 344.90000000000003 414.51 359.37 C 430.38 382.88 450.85 401.37 478.86 409.69 C 493.57 414.07 503.22 410.81 508.68 396.44 C 513.12 384.77 516.23 371.84 516.37 359.44 C 516.92 312.4 504.9 267.94 484.64 225.76 Z M 142.83 438.91 C 140.72 438.22 138.03 438.12 136.62 436.73 C 132.94 433.08000000000004 130.24 428.39000000000004 126.38000000000001 424.99 C 119.29 418.76 112.58000000000001 419.88 107.57000000000001 427.94 C 105.45 431.35 104.73 435.62 102.76 439.14 C 101.87 440.72999999999996 99.30000000000001 442.47999999999996 97.76 442.26 C 96.22 442.04 95.23 439.36 94.31 438.19 C 97.31 427.46 100.91 418.19 110.9 414.03 C 120.38000000000001 410.03 128.24 414.34999999999997 134.79000000000002 421.11999999999995 C 138.1377359593527 424.5164220369151 141.07762456056426 428.29196390490944 143.55 432.36999999999995 C 144.44 433.88 143.13 436.69 142.83 438.91 Z M 203.33 448.69 C 200.79000000000002 452.85 197.61 457.28 193.59 459.69 C 189.29 462.29 188.11 465.06 188.36 469.51 C 188.5635106679949 473.1432698031122 188.49665980967038 476.78664158179896 188.16000000000003 480.4099999999999 C 188.07000000000002 481.40999999999997 186.63000000000002 482.21999999999997 185.8 483.13 C 185.02 482.19 183.44 481.13 183.58 480.33 C 185.83 468.27 180.69000000000003 459.82 171.06 453.24 C 169.68 452.3 168.89000000000001 450.35 168.06 448.74 C 165.16 443.02 166.5 440.26 172.89000000000001 439.42 C 177.38000000000002 438.82 181.95000000000002 438.82 186.29000000000002 438.57 C 190.58 438.83 194.70000000000002 438.84999999999997 198.74 439.39 C 205.18 440.28 206.76 443.06 203.33 448.69 Z M 271.25 442.36 C 269.35756215764434 442.1576349638556 267.6480202007518 441.1384849510928 266.57 439.57 C 264.68 436.24 263.86 432.31 261.96999999999997 428.99 C 256.57 419.51 249.34999999999997 418.37 241.44999999999996 425.94 C 237.86999999999995 429.36 235.29999999999995 433.82 231.86999999999995 437.44 C 230.75999999999993 438.61 227.94999999999996 439.44 226.69999999999996 438.87 C 225.44999999999996 438.3 224.42999999999995 435.45 224.74999999999997 433.87 C 226.67999999999998 424.59000000000003 242.39 412.47 251.81999999999996 412.64 C 262.33 412.82 275.9 428.37 274.34 438.74 C 274.13 440.17 272.26 442.42 271.25 442.36 Z" stroke-linecap="round" />
</g>
<g transform="matrix(1 0 0 1 0 0)"  >
<path style="stroke: none; stroke-width: 1; stroke-dasharray: none; stroke-linecap: butt; stroke-dashoffset: 0; stroke-linejoin: miter; stroke-miterlimit: 4; fill: rgb(50,50,50); fill-rule: nonzero; opacity: 1;"  transform=" translate(0, 0)" d="" stroke-linecap="round" />
</g>
<g transform="matrix(1 0 0 1 0 0)"  >
<path style="stroke: none; stroke-width: 1; stroke-dasharray: none; stroke-linecap: butt; stroke-dashoffset: 0; stroke-linejoin: miter; stroke-miterlimit: 4; fill: rgb(50,50,50); fill-rule: nonzero; opacity: 1;"  transform=" translate(0, 0)" d="" stroke-linecap="round" />
</g>
</svg>